<svg xmlns="http://www.w3.org/2000/svg" xmlns:xlink="http://www.w3.org/1999/xlink" version="1.1" x="0px" y="0px" viewBox="0 0 100 100" enable-background="new 0 0 100 100" xml:space="preserve"><g><path d="M37.509,14.361c-0.531,0.056-0.867,0.758-0.587,1.206l1.202,2.048c-13.562,8.359-18.12,26.145-10.123,40.059   c5.313,9.257,14.849,14.531,24.775,14.783v9.818H42.571c-1.398,0-2.545,1.15-2.545,2.553c0,0.421,0.364,0.813,0.783,0.813   s0.783-0.393,0.783-0.813c0-0.561,0.42-0.981,0.979-0.981h21.952c0.559,0,0.979,0.421,0.979,0.981c0,0.421,0.363,0.813,0.783,0.813   c0.419,0,0.782-0.393,0.782-0.813c0-1.402-1.118-2.553-2.544-2.553H54.344v-9.818c4.502-0.111,9.06-1.29,13.282-3.563l1.175,2.076   c0.168,0.393,0.727,0.561,1.118,0.364c0.392-0.224,0.504-0.813,0.224-1.178l-1.37-2.412c-0.028-0.562-0.811-0.926-1.258-0.59   c-13.367,7.743-30.425,3.143-38.143-10.267C21.654,43.451,26.24,26.34,39.606,18.598c0.419-0.254,0.532-0.926,0.196-1.264   c-0.028-0.027-0.028-0.027-0.028-0.027l-1.454-2.525c-0.14-0.279-0.447-0.448-0.755-0.42   C37.565,14.361,37.538,14.361,37.509,14.361L37.509,14.361z M52.945,20.364c-3.608,0.084-7.243,1.095-10.598,3.03   c-10.682,6.199-14.373,19.973-8.193,30.717S54.064,68.53,64.746,62.33c10.71-6.199,14.373-19.973,8.193-30.717   C68.688,24.235,60.887,20.168,52.945,20.364L52.945,20.364z M53.001,21.936c7.383-0.169,14.625,3.59,18.596,10.491   c5.732,9.987,2.321,22.75-7.634,28.529c-9.955,5.778-22.678,2.356-28.439-7.63c-5.76-10.016-2.349-22.779,7.634-28.558   C46.262,22.973,49.646,22.047,53.001,21.936L53.001,21.936z"></path></g></svg>