<svg xmlns="http://www.w3.org/2000/svg" xmlns:xlink="http://www.w3.org/1999/xlink" version="1.1" x="0px" y="0px" viewBox="0 0 100 100" enable-background="new 0 0 100 100" xml:space="preserve"><path d="M80.932,23.568c-3.842-3.842-8.948-5.958-14.376-5.958c-5.435,0-10.548,2.12-14.398,5.969l-2.141,2.141l-2.167-2.167  c-3.853-3.853-8.97-5.975-14.408-5.975c-5.424,0-10.526,2.114-14.364,5.953c-3.845,3.845-5.959,8.955-5.952,14.388  c0.006,5.429,2.128,10.537,5.975,14.383l29.547,29.547c0.382,0.382,0.883,0.573,1.383,0.573s1.002-0.191,1.384-0.573l29.497-29.498  C88.853,44.41,88.862,31.498,80.932,23.568z M78.145,49.584L50.031,77.698L21.868,49.535c-3.109-3.109-4.823-7.236-4.828-11.621  c-0.005-4.386,1.702-8.512,4.806-11.616c3.099-3.099,7.218-4.806,11.597-4.806c4.393,0,8.527,1.715,11.641,4.829l3.551,3.551  c0.367,0.367,0.865,0.573,1.384,0.573c0.519,0,1.017-0.206,1.384-0.573l3.525-3.525c3.11-3.11,7.24-4.823,11.63-4.823  c4.383,0,8.506,1.709,11.609,4.812C84.569,32.739,84.56,43.168,78.145,49.584z"></path></svg>