<?xml version="1.0" encoding="utf-8"?>
<!-- Generator: Adobe Illustrator 19.2.0, SVG Export Plug-In . SVG Version: 6.00 Build 0)  -->
<svg version="1.1" id="Layer_1" xmlns="http://www.w3.org/2000/svg" xmlns:xlink="http://www.w3.org/1999/xlink" x="0px" y="0px"
	 viewBox="0 0 100 100" style="enable-background:new 0 0 100 100;" xml:space="preserve">
<style type="text/css">
	.st0{fill:#FFFFFF;}
</style>
<path class="st0" d="M5.6,50c0,24.8,20.1,44.9,44.9,44.9S95.4,74.8,95.4,50S75.3,5.1,50.5,5.1S5.6,25.2,5.6,50z M9.5,50
	c0-22.6,18.4-41,41-41s41,18.4,41,41s-18.4,41-41,41S9.5,72.6,9.5,50z"/>
<path class="st0" d="M55.3,30.9c-0.8-0.8-0.8-2,0-2.8s2-0.8,2.8,0l20.5,20.5c0.5,0.5,0.7,1,0.6,1.6c0,0.6-0.2,1.2-0.6,1.6L58.2,72.3
	c-0.4,0.4-0.9,0.6-1.4,0.6s-1-0.2-1.4-0.6c-0.8-0.8-0.8-2,0-2.8L72.9,52H23.6c-1.1,0-2-0.9-2-2s0.9-2,2-2h48.9L55.3,30.9z"/>
</svg>
